<?xml version="1.0" encoding="utf-8"?>
<!-- Generator: Adobe Illustrator 25.4.1, SVG Export Plug-In . SVG Version: 6.00 Build 0)  -->
<svg version="1.1" id="Capa_1" xmlns="http://www.w3.org/2000/svg" xmlns:xlink="http://www.w3.org/1999/xlink" x="0px" y="0px"
	 viewBox="0 0 1080 1080" style="enable-background:new 0 0 1080 1080;" xml:space="preserve">
<style type="text/css">
	.st0{fill:#FF2626;}
	.st1{fill:#FFFFFF;}
</style>
<path class="st0" d="M840,1063H246c-123.2,0-224-100.8-224-224V245C22,121.8,122.8,21,246,21h594c123.2,0,224,100.8,224,224v594
	C1064,962.2,963.2,1063,840,1063z"/>
<polygon class="st1" points="791.1,292.7 762.5,296.9 706.1,386.9 731.4,407.1 542,704.2 352.6,407.1 377.9,386.9 321.5,296.9 
	292.9,292.7 186,382.7 482.2,854 542,854 601.8,854 898,382.7 "/>
</svg>
